<?xml version="1.0" encoding="UTF-8"?>
<svg width="150px" height="150px" viewBox="0 0 150 150" version="1.1" xmlns="http://www.w3.org/2000/svg" xmlns:xlink="http://www.w3.org/1999/xlink">
    <!-- Generator: Sketch 56.2 (81672) - https://sketch.com -->
    <title>illustration/foodoptions</title>
    <desc>Created with Sketch.</desc>
    <defs>
        <circle id="path-1" cx="64" cy="64" r="64"></circle>
        <linearGradient x1="44.219281%" y1="139.362112%" x2="77.450602%" y2="49.9447205%" id="linearGradient-3">
            <stop stop-color="#FDF4D9" offset="0%"></stop>
            <stop stop-color="#FDF4D8" stop-opacity="0.99" offset="29%"></stop>
            <stop stop-color="#FDF2D2" stop-opacity="0.96" offset="43%"></stop>
            <stop stop-color="#FCF0CA" stop-opacity="0.91" offset="54%"></stop>
            <stop stop-color="#FCECBD" stop-opacity="0.84" offset="63%"></stop>
            <stop stop-color="#FBE8AD" stop-opacity="0.74" offset="72%"></stop>
            <stop stop-color="#FAE29A" stop-opacity="0.62" offset="79%"></stop>
            <stop stop-color="#FADB82" stop-opacity="0.48" offset="86%"></stop>
            <stop stop-color="#F8D367" stop-opacity="0.32" offset="93%"></stop>
            <stop stop-color="#F7CB49" stop-opacity="0.14" offset="99%"></stop>
            <stop stop-color="#F7C942" stop-opacity="0.1" offset="100%"></stop>
        </linearGradient>
        <linearGradient x1="-99.129%" y1="101.027%" x2="-50.815%" y2="13.562%" id="linearGradient-4">
            <stop stop-color="#F9BA8A" stop-opacity="0.05" offset="40%"></stop>
            <stop stop-color="#F8B989" stop-opacity="0.1" offset="47%"></stop>
            <stop stop-color="#F5B686" stop-opacity="0.22" offset="59%"></stop>
            <stop stop-color="#EFB081" stop-opacity="0.42" offset="75%"></stop>
            <stop stop-color="#E8A97A" stop-opacity="0.69" offset="93%"></stop>
            <stop stop-color="#E5A677" stop-opacity="0.8" offset="100%"></stop>
        </linearGradient>
        <linearGradient x1="116.038519%" y1="212.226667%" x2="85.2051852%" y2="117.226667%" id="linearGradient-5">
            <stop stop-color="#F9BA8A" stop-opacity="0.05" offset="40%"></stop>
            <stop stop-color="#F8B989" stop-opacity="0.1" offset="47%"></stop>
            <stop stop-color="#F5B686" stop-opacity="0.22" offset="59%"></stop>
            <stop stop-color="#EFB081" stop-opacity="0.42" offset="75%"></stop>
            <stop stop-color="#E8A97A" stop-opacity="0.69" offset="93%"></stop>
            <stop stop-color="#E5A677" stop-opacity="0.8" offset="100%"></stop>
        </linearGradient>
        <path d="M2.65074149,56.4107026 L2.58840313,0.410702572 L6.53951865,0.453300817 L6.58840313,55.4206192 C4.87859618,55.9007855 4.29445396,56.1811434 2.65074149,56.4107026 Z" id="path-6"></path>
        <path d="M30.7864179,4.33453825 C29.6771967,4.39621329 28.5648846,4.37189967 27.459394,4.26181403 C25.0788876,4.06410234 22.7864509,3.26767563 20.7938998,1.94612195 C15.3684089,-1.79726128 0,1.80450111 0,1.80450111 L4.53650402,56.2022133 C4.53650402,58.4987674 6.0626618,60.3857694 7.94365128,60.3857694 L33.6441484,60.3857694 C35.5175071,60.3857694 37.0512956,58.502595 37.0512956,56.2022133 L41.5877997,1.81215629 C38.1466363,3.23225889 34.4989821,4.08407371 30.7864179,4.33453825 Z" id="path-8"></path>
        <path d="M51.9792998,57.6292237 C47.937156,43.5871675 33.2770152,35.4806367 19.2349589,39.5227806 C12.8926556,41.3484749 7.46168029,45.4786479 4.00795567,51.1026818 L0,57.6292237 L51.9792998,57.6292237 Z" id="path-10"></path>
        <path d="M0,27.6846271 C13.6206101,13.1757163 36.4240923,12.4556064 50.933003,26.0762165 C51.3918802,26.5069992 51.8393918,26.9497309 52.2750771,27.4039559 L52.5442922,27.6846271 L0,27.6846271 Z" id="path-12"></path>
        <path d="M0,0 L76.838965,0 C76.838965,17.4740541 62.6734453,31.6395738 45.1993912,31.6395738 L31.6395738,31.6395738 C14.1655197,31.6395738 2.13995444e-15,17.4740541 0,0 L0,0 Z" id="path-14"></path>
    </defs>
    <g id="illustration/foodoptions" stroke="none" stroke-width="1" fill="none" fill-rule="evenodd">
        <g id="Illustration-1---Plantless">
            <rect id="container" x="0" y="0" width="150" height="150"></rect>
            <g id="Rectangle" transform="translate(11.000000, 11.000000)">
                <mask id="mask-2" fill="white">
                    <use xlink:href="#path-1"></use>
                </mask>
                <use id="Mask" fill="#CCEFDB" xlink:href="#path-1"></use>
                <rect fill="#99DFB8" mask="url(#mask-2)" x="-6" y="92.8" width="144" height="43.2"></rect>
                <ellipse id="Oval" fill="#7BCEA8" mask="url(#mask-2)" cx="73" cy="98" rx="20" ry="3"></ellipse>
                <ellipse id="Oval" fill="#7BCEA8" mask="url(#mask-2)" cx="32.2" cy="105.4" rx="25.8" ry="3"></ellipse>
                <ellipse id="Oval-Copy-10" fill="#7BCEA8" mask="url(#mask-2)" cx="114.6" cy="105.4" rx="25.8" ry="3"></ellipse>
            </g>
            <g id="Group-9" transform="translate(57.000000, 8.000000)">
                <ellipse id="Oval" fill="url(#linearGradient-3)" fill-rule="nonzero" cx="10" cy="86.5" rx="3" ry="3.5"></ellipse>
                <circle id="Oval" fill="url(#linearGradient-4)" fill-rule="nonzero" cx="39" cy="95" r="2"></circle>
                <circle id="Oval" fill="url(#linearGradient-5)" fill-rule="nonzero" cx="14.5" cy="94.5" r="2.5"></circle>
                <path d="M2,28 L7.45586636,92.6313997 C7.54343434,96.7122938 10.2999223,100 13.6808081,100 L39.3306138,100 C42.7076923,100 45.4641803,96.7122938 45.5517483,92.6313997 L51,28 L2,28 Z" id="Path" fill="#FFFFFF" fill-rule="nonzero"></path>
                <g id="Path-7" transform="translate(36.000000, 0.000000)">
                    <mask id="mask-7" fill="white">
                        <use xlink:href="#path-6"></use>
                    </mask>
                    <use id="Mask" fill="#99DFB8" fill-rule="nonzero" transform="translate(4.588403, 28.410703) rotate(4.000000) translate(-4.588403, -28.410703) " xlink:href="#path-6"></use>
                </g>
                <path d="M20.8142557,38.181036 L18.0347677,43.9126982 C17.8464893,44.3493811 17.4525441,44.6985944 16.9487507,44.8753994 C16.4449573,45.0522044 15.8774845,45.0403982 15.384358,44.8428524 L9.18859518,42.269303 C8.16010973,41.800123 7.72276849,40.7365165 8.18178372,39.8207546 L10.9655744,34.0890925 C11.1540526,33.6524757 11.5477243,33.3031574 12.0512266,33.1257561 C12.5547289,32.9483549 13.1221304,32.959054 13.615984,33.1552617 L19.8074443,35.7288111 C20.8415868,36.1956972 21.2803704,37.2644137 20.8142557,38.181036 Z" id="Path" fill="#FFECE6" fill-rule="nonzero"></path>
                <path d="M38.9423834,39.0535924 L41.7902738,44.9210204 C42.2612896,45.8590083 41.9151553,46.9877095 40.9903046,47.5296212 L38.5903969,48.7954466 C38.1451962,49.0250393 37.6199319,49.0632156 37.1439213,48.9005768 C36.6679108,48.737938 36.2853752,48.3895932 36.090493,47.941303 L33.2106038,42.0931125 C32.7380399,41.156419 33.0847027,40.0276617 34.010573,39.4883592 L36.4104807,38.2186863 C36.8564679,37.9798173 37.3869213,37.9343376 37.8697972,38.0935681 C38.3526731,38.2527985 38.7425521,38.601762 38.9423834,39.0535924 L38.9423834,39.0535924 Z" id="Path" fill="#FFECE6" fill-rule="nonzero"></path>
                <path d="M30.2918952,40.9546023 L25.5766352,44.6467944 C25.2117049,44.9327902 24.7403961,45.0532291 24.2798773,44.9781697 C23.8193586,44.9031104 23.4128832,44.6396025 23.161502,44.253155 L21.33624,41.6143129 C20.7722225,40.7907503 20.9323431,39.6817006 21.7072282,39.0447221 L26.4224883,35.3561749 C26.7865082,35.0687031 27.2578284,34.9469688 27.7186862,35.0213879 C28.179544,35.095807 28.5864084,35.3593502 28.8376215,35.7461695 L30.6628834,38.3886564 C31.2282107,39.2106727 31.0678561,40.319768 30.2918952,40.9546023 Z" id="Path" fill="#FFECE6" fill-rule="nonzero"></path>
                <g id="Path-+-Path-+-Path-+-Path-+-Path-+-Path-+-Path-+-Path-+-Oval-+-Oval-+-Oval-Mask" transform="translate(5.000000, 36.000000)">
                    <mask id="mask-9" fill="white">
                        <use xlink:href="#path-8"></use>
                    </mask>
                    <use id="Mask" fill="#D48368" fill-rule="nonzero" xlink:href="#path-8"></use>
                    <path d="M25.2918952,4.95460233 L20.5766352,8.64679439 C20.2117049,8.93279016 19.7403961,9.05322908 19.2798773,8.97816972 C18.8193586,8.90311037 18.4128832,8.63960254 18.161502,8.25315496 L16.33624,5.61431286 C15.7722225,4.79075029 15.9323431,3.68170059 16.7072282,3.04472213 L21.4224883,-0.643825113 C21.7865082,-0.931296857 22.2578284,-1.05303125 22.7186862,-0.978612129 C23.179544,-0.904193012 23.5864084,-0.640649788 23.8376215,-0.253830493 L25.6628834,2.38865642 C26.2282107,3.21067274 26.0678561,4.31976804 25.2918952,4.95460233 Z" id="Path" fill="#EB9C82" fill-rule="nonzero" mask="url(#mask-9)"></path>
                    <path d="M32.5529456,15.0088649 L34.7582436,16.7619012 C35.5551672,17.430823 35.7198418,18.5954895 35.139783,19.4603523 L33.514425,21.8525962 C33.2566976,22.2594095 32.8385602,22.5369553 32.3645521,22.615844 C31.8905439,22.6947326 31.4054696,22.5675074 31.0306032,22.2659759 L28.8291206,20.5129396 C28.0431022,19.8461017 27.8791232,18.6945794 28.4475811,17.8336264 L30.0653084,15.437555 C30.3196187,15.0261546 30.7374181,14.7437497 31.2129948,14.6617945 C31.6885715,14.5798392 32.1763621,14.7061853 32.5529456,15.0088649 L32.5529456,15.0088649 Z" id="Path" fill="#EB9C82" fill-rule="nonzero" mask="url(#mask-9)"></path>
                    <path d="M11.5034143,14.316071 L12.1405852,17.202074 C12.3909148,18.2035316 11.8157733,19.2262833 10.8319049,19.5292489 L8.16112876,20.2258703 C7.68964636,20.3266446 7.19758569,20.2306095 6.7981521,19.9598592 C6.39871852,19.689109 6.12630528,19.2669566 6.04358483,18.790524 L5.40259856,15.904521 C5.15465649,14.9022255 5.73098958,13.8803343 6.71509426,13.5773461 L9.38587038,12.8807247 C9.85724563,12.7810729 10.348753,12.8775695 10.7479076,13.1481306 C11.1470621,13.4186917 11.4196958,13.840157 11.5034143,14.316071 L11.5034143,14.316071 Z" id="Path" fill="#EB9C82" fill-rule="nonzero" mask="url(#mask-9)"></path>
                    <path d="M15.8142557,2.18103601 L13.0347677,7.91269816 C12.8464893,8.34938112 12.4525441,8.69859442 11.9487507,8.87539939 C11.4449573,9.05220435 10.8774845,9.04039817 10.384358,8.84285244 L4.18859518,6.26930304 C3.16010973,5.80012295 2.72276849,4.73651647 3.18178372,3.82075462 L5.96557439,-1.91090753 C6.15405257,-2.34752426 6.54772427,-2.69684263 7.05122659,-2.87424387 C7.55472892,-3.05164511 8.12213044,-3.04094601 8.61598405,-2.84473831 L14.8074443,-0.271188913 C15.8415868,0.195697158 16.2803704,1.26441369 15.8142557,2.18103601 Z" id="Path" fill="#EB9C82" fill-rule="nonzero" mask="url(#mask-9)"></path>
                    <path d="M36.7902738,8.9210204 C37.2612896,9.85900833 36.9151553,10.9877095 35.9903046,11.5296212 L33.5903969,12.7954466 C33.1451962,13.0250393 32.6199319,13.0632156 32.1439213,12.9005768 C31.6679108,12.737938 31.2853752,12.3895932 31.090493,11.941303 L28.2106038,6.09311248 C27.7380399,5.15641899 28.0847027,4.02766171 29.010573,3.4883592 L31.4104807,2.21868626 C31.8564679,1.97981733 32.3869213,1.93433757 32.8697972,2.09356806 C33.3526731,2.25279854 33.7425521,2.60176197 33.9423834,3.05359241 L36.7902738,8.9210204 Z" id="Path" fill="#EB9C82" fill-rule="nonzero" mask="url(#mask-9)"></path>
                </g>
                <rect id="Rectangle" fill="#99DBEB" fill-rule="nonzero" x="0" y="26" width="52" height="3" rx="1.16295368"></rect>
            </g>
            <g id="Group-12" transform="translate(4.000000, 27.000000)">
                <g id="Group-8" transform="translate(1.694977, 0.000000)">
                    <g id="Path-27-+-Path-27-+-Path-27-Mask" transform="translate(21.469711, 0.000000)">
                        <mask id="mask-11" fill="white">
                            <use xlink:href="#path-10"></use>
                        </mask>
                        <use id="Mask" fill="#F4BF25" xlink:href="#path-10"></use>
                        <path d="M52.4597886,60.3158723 C48.3412563,46.0084494 33.4040684,37.7487216 19.0966455,41.8672538 C12.6344854,43.7274501 7.10087564,47.935675 3.58188257,53.6659919 L-0.893804259,60.9541857 L52.6435333,60.9541857 L52.4597886,60.3158723 Z M0.893804259,59.9541857 L4.43402876,54.1892957 C7.82248495,48.6715447 13.1508257,44.6194236 19.3732723,42.8282313 C32.9357693,38.9241332 47.0859608,46.5713821 51.3063317,59.9541857 L0.893804259,59.9541857 Z" id="Path-27" fill="#F8D367" fill-rule="nonzero" mask="url(#mask-11)"></path>
                        <path d="M53.024781,63.7058266 C48.9062487,49.3984038 33.9690608,41.1386759 19.6616379,45.2572082 C13.1994778,47.1174044 7.66586803,51.3256294 4.14687496,57.0559462 L-0.328811869,64.34414 L53.2085257,64.34414 L53.024781,63.7058266 Z M1.45879665,63.34414 L4.99902115,57.57925 C8.38747734,52.061499 13.7158181,48.009378 19.9382647,46.2181856 C33.5007617,42.3140876 47.6509532,49.9613364 51.8713241,63.34414 L1.45879665,63.34414 Z" id="Path-27" fill="#FADE8D" fill-rule="nonzero" mask="url(#mask-11)"></path>
                        <path d="M53.024781,67.095781 C48.9062487,52.7883581 33.9690608,44.5286303 19.6616379,48.6471625 C13.1994778,50.5073588 7.66586803,54.7155837 4.14687496,60.4459005 L-0.328811869,67.7340944 L53.2085257,67.7340944 L53.024781,67.095781 Z M1.45879665,66.7340944 L4.99902115,60.9692043 C8.38747734,55.4514533 13.7158181,51.3993323 19.9382647,49.6081399 C33.5007617,45.7040419 47.6509532,53.3512908 51.8713241,66.7340944 L1.45879665,66.7340944 Z" id="Path-27" fill="#FBE9B3" fill-rule="nonzero" mask="url(#mask-11)"></path>
                        <path d="M54.1547657,71.0507277 C50.0362335,56.7433048 35.0990455,48.483577 20.7916227,52.6021092 C14.3294626,54.4623055 8.7958528,58.6705304 5.27685974,64.4008473 L0.80117291,71.6890411 L54.3385105,71.6890411 L54.1547657,71.0507277 Z M2.58878143,70.6890411 L6.12900593,64.9241511 C9.51746212,59.4064001 14.8458029,55.354279 21.0682495,53.5630867 C34.6307465,49.6589886 48.780938,57.3062375 53.0013089,70.6890411 L2.58878143,70.6890411 Z" id="Path-27" fill="#F7D778" fill-rule="nonzero" mask="url(#mask-11)"></path>
                    </g>
                    <g id="Path-23-+-Path-23-+-Path-23-Mask" transform="translate(0.000000, 28.405479)">
                        <mask id="mask-13" fill="white">
                            <use xlink:href="#path-12"></use>
                        </mask>
                        <use id="Mask" fill="#F7C942" xlink:href="#path-12"></use>
                        <path d="M-0.200455873,30.2868146 C13.2311525,15.9792318 35.7182099,15.2691142 50.0257927,28.7007225 C50.4783024,29.1255276 50.9196043,29.5621159 51.3492439,30.0100381 L51.6184591,30.2907092 L52.3401406,29.5984841 L52.0709254,29.3178129 C51.6291946,28.857285 51.1754733,28.4084098 50.7102286,27.9716495 C35.9999899,14.1620377 12.8800829,14.89214 -0.929528906,29.6023787 L-0.200455873,30.2868146 Z" id="Path-23" fill="#FADE8D" fill-rule="nonzero" mask="url(#mask-13)"></path>
                        <path d="M-1.33044065,33.1117766 C12.1011677,18.8041938 34.5882251,18.0940762 48.8958079,31.5256845 C49.3483177,31.9504896 49.7896195,32.3870779 50.2192591,32.835 L50.4884743,33.1156712 L51.2101559,32.423446 L50.9409407,32.1427749 C50.4992098,31.6822469 50.0454885,31.2333718 49.5802438,30.7966115 C34.8700051,16.9869996 11.7500982,17.7171019 -2.05951369,32.4273406 L-1.33044065,33.1117766 Z" id="Path-23" fill="#FBE9B3" fill-rule="nonzero" mask="url(#mask-13)"></path>
                        <path d="M-3.59041021,37.0667233 C9.84119812,22.7591405 32.3282556,22.0490229 46.6358384,35.4806312 C47.0883481,35.9054363 47.5296499,36.3420246 47.9592895,36.7899468 L48.2285047,37.0706179 L48.9501863,36.3783927 L48.6809711,36.0977216 C48.2392402,35.6371936 47.7855189,35.1883185 47.3202743,34.7515582 C32.6100356,20.9419463 9.4901286,21.6720487 -4.31948324,36.3822874 L-3.59041021,37.0667233 Z" id="Path-23" fill="#FADE8D" fill-rule="nonzero" mask="url(#mask-13)"></path>
                    </g>
                    <circle id="Oval-Copy-8" fill="#945C27" cx="9.32237443" cy="56.4310502" r="3.67245053"></circle>
                    <circle id="Oval" fill="#BC844F" cx="16.6672755" cy="55.3010654" r="4.80243531"></circle>
                </g>
                <path d="M27.1196347,86.5607306 L49.7193303,86.5607306 L49.7193303,89.4798579 C49.7193303,89.7398885 49.5085339,89.9506849 49.2485033,89.9506849 L27.5904617,89.9506849 C27.3304311,89.9506849 27.1196347,89.7398885 27.1196347,89.4798579 L27.1196347,86.5607306 Z" id="Rectangle" fill="#EE6352"></path>
                <g id="Path-3-+-Oval-+-Oval-Copy-3-+-Oval-Copy-13-+-Oval-Copy-9-+-Oval-Copy-14-+-Oval-Copy-7-+-Oval-Copy-18-+-Oval-Copy-12-+-Oval-Copy-19-Mask" transform="translate(0.000000, 56.051142)">
                    <mask id="mask-15" fill="white">
                        <use xlink:href="#path-14"></use>
                    </mask>
                    <use id="Mask" fill="#363A45" xlink:href="#path-14"></use>
                    <path d="M0.353553391,16.1733403 L7.62794931,8.89894439 C8.7197728,7.80712089 10.4899684,7.80712089 11.5817919,8.89894439 L16.5257131,13.8428656 C18.0080609,15.3252134 20.4114216,15.3252134 21.8937693,13.8428656 L26.8376906,8.89894439 C27.929514,7.80712089 29.6997097,7.80712089 30.7915332,8.89894439 L35.7354544,13.8428656 C37.2178022,15.3252134 39.6211628,15.3252134 41.1035106,13.8428656 L46.0474318,8.89894439 C47.1392553,7.80712089 48.9094509,7.80712089 50.0012744,8.89894439 L54.9451956,13.8428656 C56.4275434,15.3252134 58.8309041,15.3252134 60.3132518,13.8428656 L65.2571731,8.89894439 C66.3489965,7.80712089 68.1191922,7.80712089 69.2110157,8.89894439 L76.4854116,16.1733403 L77.1925184,15.4662335 L69.9181225,8.1918376 C68.4357747,6.70948982 66.0324141,6.70948982 64.5500663,8.1918376 L59.6061451,13.1357588 C58.5143216,14.2275823 56.7441259,14.2275823 55.6523024,13.1357588 L50.7083812,8.1918376 C49.2260334,6.70948982 46.8226728,6.70948982 45.340325,8.1918376 L40.3964038,13.1357588 C39.3045803,14.2275823 37.5343847,14.2275823 36.4425612,13.1357588 L31.49864,8.1918376 C30.0162922,6.70948982 27.6129316,6.70948982 26.1305838,8.1918376 L21.1866626,13.1357588 C20.0948391,14.2275823 18.3246434,14.2275823 17.2328199,13.1357588 L12.2888987,8.1918376 C10.8065509,6.70948982 8.40319031,6.70948982 6.92084252,8.1918376 L-0.353553391,15.4662335 L0.353553391,16.1733403 Z" id="Path-3" fill="#6B7896" fill-rule="nonzero" mask="url(#mask-15)"></path>
                    <g id="Group-11" mask="url(#mask-15)" fill="#6B7896">
                        <g transform="translate(-1.694977, 4.519939)">
                            <circle id="Oval" cx="1.69497717" cy="1.69497717" r="1.69497717"></circle>
                            <circle id="Oval-Copy-3" cx="11.2998478" cy="11.2998478" r="1.69497717"></circle>
                            <circle id="Oval-Copy-13" cx="49.7193303" cy="11.2998478" r="1.69497717"></circle>
                            <circle id="Oval-Copy-9" cx="30.509589" cy="11.2998478" r="1.69497717"></circle>
                            <circle id="Oval-Copy-14" cx="68.9290715" cy="11.2998478" r="1.69497717"></circle>
                            <circle id="Oval-Copy-7" cx="20.9047184" cy="1.69497717" r="1.69497717"></circle>
                            <circle id="Oval-Copy-18" cx="59.3242009" cy="1.69497717" r="1.69497717"></circle>
                            <circle id="Oval-Copy-12" cx="40.1144597" cy="1.69497717" r="1.69497717"></circle>
                            <circle id="Oval-Copy-19" cx="78.5339422" cy="1.69497717" r="1.69497717"></circle>
                        </g>
                    </g>
                </g>
            </g>
            <g id="Group-14" transform="translate(98.000000, 56.000000)">
                <g id="Group-18" transform="translate(21.524950, 28.253266) rotate(5.000000) translate(-21.524950, -28.253266) translate(18.524950, 4.253266)" fill="#F4BF25">
                    <rect id="Rectangle" x="0.466904452" y="0.731529569" width="5.40629275" height="46.3351792"></rect>
                </g>
                <g id="Group-17" transform="translate(17.000000, 24.500000) rotate(-2.000000) translate(-17.000000, -24.500000) translate(14.000000, 1.000000)" fill="#F7C942">
                    <rect id="Rectangle" x="0.351573187" y="0" width="5.40629275" height="46.3351792"></rect>
                </g>
                <g id="Group-19" transform="translate(25.457190, 34.444001) rotate(10.000000) translate(-25.457190, -34.444001) translate(19.957190, 10.444001)" fill="#F7C942">
                    <rect id="Rectangle" transform="translate(5.694222, 23.685078) rotate(-6.000000) translate(-5.694222, -23.685078) " x="2.99107536" y="0.517488025" width="5.40629275" height="46.3351792"></rect>
                </g>
                <g id="Group-20" transform="translate(28.828878, 33.135114) rotate(15.000000) translate(-28.828878, -33.135114) translate(25.828878, 9.135114)" fill="#F4BF25">
                    <rect id="Rectangle-Copy-5" x="0.183811832" y="0.896320716" width="5.40629275" height="46.3351792"></rect>
                </g>
                <g id="Group-16" transform="translate(13.007050, 30.396185) rotate(-10.000000) translate(-13.007050, -30.396185) translate(10.007050, 6.896185)" fill="#F4BF25">
                    <rect id="Rectangle-Copy-3" x="0.0372621094" y="0.0545160387" width="5.40629275" height="46.3351792"></rect>
                </g>
                <g id="Group-7" transform="translate(9.786980, 36.993193) rotate(-15.000000) translate(-9.786980, -36.993193) translate(6.786980, 12.993193)" fill="#F7C942">
                    <rect id="Rectangle-Copy-2" x="0.17073944" y="0.979166492" width="5.40629275" height="46.3351792"></rect>
                </g>
                <path d="M7.12253423,23.0277027 L8.13957806,24.3333333 C9.77804885,26.4367211 12.2952061,27.6666667 14.9614444,27.6666667 L23.3884584,27.6666667 C26.0546967,27.6666667 28.5718539,26.4367211 30.2103247,24.3333333 L31.2273685,23.0277027 C32.2240681,21.7481892 33.755282,21 35.3771837,21 L38,21 L35.5631145,58.540237 C35.4733042,59.9237661 34.3249425,61 32.9385016,61 L5.06149845,61 C3.67505751,61 2.52669582,59.9237661 2.43688547,58.540237 L0,21 L2.97271911,21 C4.59462073,21 6.12583472,21.7481892 7.12253423,23.0277027 Z" id="Path" fill="#EE6352"></path>
                <circle id="Oval" fill="#F4A197" cx="19" cy="46" r="7"></circle>
            </g>
        </g>
    </g>
</svg>