<svg xmlns="http://www.w3.org/2000/svg" xmlns:xlink="http://www.w3.org/1999/xlink" viewBox="0 0 235 200">
    <defs>
        <circle id="a" cx="100" cy="100" r="100"/>
        <path id="c" d="M6.4 0h120.533a6.4 6.4 0 0 1 6.4 6.4V220H0V6.4A6.4 6.4 0 0 1 6.4 0z"/>
        <path id="d" d="M5.333 5.333H128v116H5.333z"/>
    </defs>
    <g fill="none" fill-rule="evenodd">
        <g transform="translate(18.333)">
            <mask id="b" fill="#fff">
                <use xlink:href="#a"/>
            </mask>
            <use fill="#CCEFDB" xlink:href="#a"/>
            <g mask="url(#b)">
                <g transform="translate(33.333 40)">
                    <use fill="#FFF" xlink:href="#c"/>
                    <mask id="e" fill="#fff">
                        <use xlink:href="#d"/>
                    </mask>
                    <use fill="#FADE8D" xlink:href="#d"/>
                    <g fill-rule="nonzero" mask="url(#e)">
                        <path fill="#66C9E2" d="M67.022 41.186l42.342 10.816-.207.811-42.342-10.816z"/>
                        <path fill="#00B14F" d="M80.82 32.77l-9.5 37.186-.81-.207 9.499-37.186zM91.784 35.57l-9.5 37.186-.81-.207 9.498-37.186zM102.737 38.413l-9.5 37.186-.81-.207 9.499-37.186z"/>
                        <path fill="#66C9E2" d="M62.779 57.799l42.341 10.816-.207.811L62.571 58.61z"/>
                        <path fill="#CCEDF5" d="M82.863 37.888L70.952 74.373l-.796-.26 11.91-36.485z"/>
                        <path fill="#99DFB8" d="M109.827 59.74l.26-.8-9.299-3.036 3.576-10.952-.8-.267-3.576 10.952-9.957-3.237 3.59-10.996-.8-.26-3.586 10.99-20.691-6.757-.259.8 20.69 6.756-5.067 15.504-20.687-6.76-.26.8 20.691 6.756-2.741 8.4.8.259 2.741-8.393 9.961 3.253-2.754 8.437.8.26 2.754-8.437 9.299 3.036.267-.8-9.299-3.037 5.067-15.504 9.28 3.033zM94.669 71.947l-9.961-3.254 5.067-15.504 9.961 3.254-5.067 15.504z"/>
                    </g>
                    <g fill-rule="nonzero" mask="url(#e)">
                        <path fill="#F7C942" d="M103.168 79.885L62.365 69.4c-.153-.039-1.224-.475-1.001-1.344l10.133-39.508c.04-.15.192-.24.343-.205l41.785 10.666c.154.04.247.197.207.351l-10.313 40.319a.288.288 0 0 1-.351.206z"/>
                        <path fill="#66C9E2" d="M68.69 39.52l42.34 10.815-.206.812L68.482 40.33z"/>
                        <path fill="#FADE8D" d="M82.487 31.103l-9.5 37.186-.811-.207 9.5-37.186zM93.45 33.904L83.951 71.09l-.811-.208 9.499-37.185zM104.404 36.747l-9.5 37.186-.81-.208 9.499-37.186z"/>
                        <path fill="#66C9E2" d="M64.445 56.132l42.342 10.816-.207.812-42.342-10.817z"/>
                        <path fill="#F8D367" d="M74.11 32.772l40.95 13.377a.31.31 0 0 1 .2.392l-11.752 35.973a.31.31 0 0 1-.391.2L62.166 69.335a.31.31 0 0 1-.199-.391L73.718 32.97a.31.31 0 0 1 .392-.199z"/>
                        <path fill="#CCEDF5" d="M84.53 36.221L72.617 72.706l-.796-.26 11.911-36.484z"/>
                        <path fill="#FDF4D9" d="M111.493 58.073l.26-.8-9.298-3.036 3.576-10.952-.8-.266-3.576 10.952-9.958-3.238 3.591-10.996-.8-.26-3.587 10.99-20.69-6.756-.259.8 20.69 6.756-5.067 15.504-20.687-6.76-.26.8 20.69 6.756-2.74 8.4.8.258 2.74-8.393 9.962 3.253-2.755 8.438.8.26 2.755-8.438 9.299 3.036.266-.8-9.298-3.037 5.066-15.504 9.28 3.033zM96.336 70.28l-9.961-3.253 5.066-15.504 9.962 3.253-5.067 15.504z"/>
                    </g>
                    <circle cx="63.005" cy="71.138" r="36.538" fill="#F7C942" fill-rule="nonzero" mask="url(#e)"/>
                    <g mask="url(#e)">
                        <g transform="translate(28 29.667)">
                            <circle cx="38.338" cy="38.138" r="36.538" fill="#F6F9FB" fill-rule="nonzero"/>
                            <circle cx="38.368" cy="38.367" r="27.08" fill="#99DBEB" fill-rule="nonzero" opacity=".3" transform="rotate(-45 38.368 38.367)"/>
                            <path fill="#CAEBF3" fill-rule="nonzero" d="M40.316 74.042c-20.172.512-36.94-15.426-37.454-35.6a36.526 36.526 0 0 1 17.41-32.07 36.53 36.53 0 0 0-18.46 32.694c.512 20.172 17.28 36.11 37.454 35.6a36.366 36.366 0 0 0 18.188-5.384 36.4 36.4 0 0 1-17.138 4.76z" opacity=".7"/>
                            <path fill="#CAEBF3" fill-rule="nonzero" d="M37.3 12.452A27.506 27.506 0 0 1 63.024 49.58a27.09 27.09 0 0 0-24.642-38.292h-.702a26.986 26.986 0 0 0-18.516 7.98 27.252 27.252 0 0 1 17.424-6.814c.236.002.474-.002.712-.002z" opacity=".3"/>
                            <path fill="#F5C742" fill-rule="nonzero" d="M17.8 39.66c0-10.877 8.817-19.694 19.694-19.694 10.878 0 21.036 8.53 21.036 19.4S48.372 59.348 37.494 59.348c-10.874 0-19.69-8.814-19.694-19.688z"/>
                            <path fill="#EC6352" fill-rule="nonzero" d="M17.8 39.66c0-10.877 8.817-19.694 19.694-19.694 10.878 0 21.036 8.53 21.036 19.4S48.372 59.348 37.494 59.348c-10.874 0-19.69-8.814-19.694-19.688z" opacity=".2"/>
                            <path fill="#F5C742" fill-rule="nonzero" d="M17.8 39.66c0-10.877 8.817-19.694 19.694-19.694 10.878 0 21.036 8.53 21.036 19.4S48.372 59.348 37.494 59.348c-10.874 0-19.69-8.814-19.694-19.688z"/>
                            <path fill="#EC6352" fill-rule="nonzero" d="M37.49 59.354c.658 0 1.31-.036 1.96-.1-9.946-1-16.4-9-16.4-19.2s6.468-19.018 16.432-20a20.793 20.793 0 0 0-2-.096c-10.877 0-19.694 8.817-19.694 19.694 0 10.877 8.817 19.694 19.694 19.694l.008.008z" opacity=".2"/>
                            <rect width="1.82" height="1" x="55.298" y="48.49" fill="#F5C742" fill-rule="nonzero" rx=".103" transform="rotate(-180 56.208 48.831)"/>
                            <path fill="#F5C742" fill-rule="nonzero" d="M59.314 49.332l.464 1.104a.268.268 0 0 1-.14.352.268.268 0 0 1-.354-.138l-.464-1.104a.268.268 0 0 1 .14-.352.268.268 0 0 1 .354.138zM56.294 50.875l.954-1.412a.07.07 0 0 1 .097-.02l.264.18a.07.07 0 0 1 .019.096l-.954 1.413a.07.07 0 0 1-.097.018l-.264-.178a.07.07 0 0 1-.019-.097zM53.868 52.096l-.476-1.542a.103.103 0 0 1 .068-.13l.455-.14a.103.103 0 0 1 .129.069l.476 1.541a.103.103 0 0 1-.068.13l-.455.14a.103.103 0 0 1-.129-.068zM55.12 51.928l.359-1.575a.103.103 0 0 1 .124-.078l.463.106c.056.013.09.068.078.124l-.36 1.575a.103.103 0 0 1-.123.077l-.463-.105a.103.103 0 0 1-.078-.124zM54.4 54.344l-.916.768a.272.272 0 0 1-.38-.03.268.268 0 0 1 .028-.378l.918-.768a.268.268 0 0 1 .378.028.27.27 0 0 1-.028.38zM51.55 52.56l1.632.496a.07.07 0 0 1 .046.087l-.092.305a.07.07 0 0 1-.087.046L51.418 53a.07.07 0 0 1-.047-.087l.093-.305a.07.07 0 0 1 .087-.046zM56.475 56.182L56 54.64a.103.103 0 0 1 .068-.129l.455-.14a.103.103 0 0 1 .129.068l.476 1.542a.103.103 0 0 1-.068.129l-.455.14a.103.103 0 0 1-.129-.068zM59.752 47.654l.36-1.575a.103.103 0 0 1 .123-.078l.463.106c.056.013.09.068.078.124l-.359 1.575a.103.103 0 0 1-.123.077l-.464-.105a.103.103 0 0 1-.078-.124zM57.6 47.656l-.918.768a.268.268 0 0 1-.378-.028.272.272 0 0 1 .028-.38l.918-.768a.268.268 0 0 1 .378.028.272.272 0 0 1-.028.38zM60.86 48.024l1.632.495a.07.07 0 0 1 .046.086l-.092.306a.07.07 0 0 1-.087.046l-1.631-.495a.07.07 0 0 1-.047-.087l.093-.305a.07.07 0 0 1 .087-.046zM57.49 44.497l-1.398-.808a.103.103 0 0 1-.038-.14l.238-.413a.103.103 0 0 1 .14-.037l1.4.807c.05.029.066.092.038.141l-.238.412a.103.103 0 0 1-.141.038zM57.476 45.18l.464 1.102a.27.27 0 0 1-.138.354.27.27 0 0 1-.354-.138l-.464-1.098a.27.27 0 0 1 .14-.354c.134-.06.291 0 .352.134zM57.914 43.502l.359-1.576a.103.103 0 0 1 .124-.077l.463.105c.056.013.09.068.078.124l-.36 1.575a.103.103 0 0 1-.123.078l-.463-.106a.103.103 0 0 1-.078-.123zM59.022 43.873l1.63.495a.07.07 0 0 1 .047.087l-.092.305a.07.07 0 0 1-.087.046l-1.631-.495a.07.07 0 0 1-.047-.087l.093-.305a.07.07 0 0 1 .087-.046z"/>
                            <rect width="1.82" height="1" x="44.796" y="58.318" fill="#F5C742" fill-rule="nonzero" rx=".103" transform="rotate(180 45.706 58.659)"/>
                            <path fill="#F5C742" fill-rule="nonzero" d="M57.572 31.624L56.75 30.2a.106.106 0 0 1 .04-.144l.417-.242a.106.106 0 0 1 .144.04l.822 1.422c.029.05.012.115-.039.144l-.418.241a.106.106 0 0 1-.144-.038zM59.314 49.332l.464 1.104a.268.268 0 0 1-.14.352.268.268 0 0 1-.354-.138l-.464-1.104a.268.268 0 0 1 .14-.352.268.268 0 0 1 .354.138zM56.294 50.875l.954-1.412a.07.07 0 0 1 .097-.02l.264.18a.07.07 0 0 1 .019.096l-.954 1.413a.07.07 0 0 1-.097.018l-.264-.178a.07.07 0 0 1-.019-.097zM53.868 52.096l-.476-1.542a.103.103 0 0 1 .068-.13l.455-.14a.103.103 0 0 1 .129.069l.476 1.541a.103.103 0 0 1-.068.13l-.455.14a.103.103 0 0 1-.129-.068zM55.12 51.928l.359-1.575a.103.103 0 0 1 .124-.078l.463.106c.056.013.09.068.078.124l-.36 1.575a.103.103 0 0 1-.123.077l-.463-.105a.103.103 0 0 1-.078-.124zM54.4 54.344l-.916.768a.272.272 0 0 1-.38-.03.268.268 0 0 1 .028-.378l.918-.768a.268.268 0 0 1 .378.028.27.27 0 0 1-.028.38zM51.55 52.56l1.632.496a.07.07 0 0 1 .046.087l-.092.305a.07.07 0 0 1-.087.046L51.418 53a.07.07 0 0 1-.047-.087l.093-.305a.07.07 0 0 1 .087-.046zM55.114 55.697l-.468-1.55a.103.103 0 0 1 .07-.128l.456-.138a.103.103 0 0 1 .13.068l.467 1.55a.103.103 0 0 1-.069.129l-.457.138a.103.103 0 0 1-.129-.07zM59.752 47.654l.36-1.575a.103.103 0 0 1 .123-.078l.463.106c.056.013.09.068.078.124l-.359 1.575a.103.103 0 0 1-.123.077l-.464-.105a.103.103 0 0 1-.078-.124zM58.342 52.586l-.916.768a.272.272 0 0 1-.38-.028.272.272 0 0 1 .028-.38l.918-.768a.268.268 0 0 1 .378.03.266.266 0 0 1-.028.378zM60.86 48.024l1.632.495a.07.07 0 0 1 .046.086l-.092.306a.07.07 0 0 1-.087.046l-1.631-.495a.07.07 0 0 1-.047-.087l.093-.305a.07.07 0 0 1 .087-.046zM49.01 57.477l-1.398-.808a.103.103 0 0 1-.038-.14l.238-.413a.103.103 0 0 1 .14-.037l1.4.807c.05.029.066.092.038.141l-.238.412a.103.103 0 0 1-.141.038zM49 58.16l.464 1.104a.27.27 0 0 1-.14.354.27.27 0 0 1-.354-.14l-.464-1.102A.27.27 0 0 1 49 58.16zM49.435 56.482l.359-1.575a.103.103 0 0 1 .123-.078l.464.106c.056.013.09.068.078.123l-.36 1.576a.103.103 0 0 1-.123.077l-.463-.105a.103.103 0 0 1-.078-.124zM50.542 56.851l1.631.495a.07.07 0 0 1 .047.087l-.093.305a.07.07 0 0 1-.087.047l-1.631-.495a.07.07 0 0 1-.046-.087l.092-.305a.07.07 0 0 1 .087-.047z"/>
                            <path fill="#F5C742" fill-rule="nonzero" d="M49 58.16l.464 1.104a.27.27 0 0 1-.14.354.27.27 0 0 1-.354-.14l-.464-1.102A.27.27 0 0 1 49 58.16zM49.435 56.482l.359-1.575a.103.103 0 0 1 .123-.078l.464.106c.056.013.09.068.078.123l-.36 1.576a.103.103 0 0 1-.123.077l-.463-.105a.103.103 0 0 1-.078-.124zM50.542 56.851l1.631.495a.07.07 0 0 1 .047.087l-.093.305a.07.07 0 0 1-.087.047l-1.631-.495a.07.07 0 0 1-.046-.087l.092-.305a.07.07 0 0 1 .087-.047z"/>
                            <rect width="1.82" height="1" x="22.41" y="21.564" fill="#F5C742" fill-rule="nonzero" rx=".103" transform="rotate(-180 23.32 21.905)"/>
                            <path fill="#F5C742" fill-rule="nonzero" d="M26.413 24.204l-1.399-.807a.103.103 0 0 1-.038-.141l.238-.412a.103.103 0 0 1 .141-.038l1.4.808c.049.028.066.091.037.14l-.238.413a.103.103 0 0 1-.14.037zM32.3 21.476l-1.398-.808a.103.103 0 0 1-.038-.141l.238-.412a.103.103 0 0 1 .14-.038l1.4.808c.05.029.066.092.038.141l-.238.412a.103.103 0 0 1-.141.038zM24.238 24.702l.464 1.104a.27.27 0 0 1-.138.354.27.27 0 0 1-.354-.14l-.464-1.102a.27.27 0 0 1 .138-.354.27.27 0 0 1 .354.138zM20.19 23.169l1.565.675a.07.07 0 0 1 .036.092l-.126.293a.07.07 0 0 1-.092.036l-1.565-.676a.07.07 0 0 1-.036-.091l.126-.293a.07.07 0 0 1 .091-.036zM25.801 21.023l.6 1.596a.07.07 0 0 1-.041.09l-.299.112a.07.07 0 0 1-.09-.04l-.598-1.597a.07.07 0 0 1 .04-.09l.299-.111a.07.07 0 0 1 .09.04zM28.307 22.723l-1.11-1.17a.103.103 0 0 1 .004-.147l.345-.327a.103.103 0 0 1 .146.004l1.11 1.171a.103.103 0 0 1-.004.146l-.345.327a.103.103 0 0 1-.146-.004z"/>
                            <path fill="#F5C742" fill-rule="nonzero" d="M24.892 23.756l-.132 1.2a.268.268 0 0 1-.294.24.268.268 0 0 1-.24-.292l.132-1.2a.27.27 0 0 1 .294-.242.27.27 0 0 1 .24.294zM20.987 24.902l.954-1.413a.07.07 0 0 1 .097-.019l.264.179a.07.07 0 0 1 .019.096l-.954 1.413a.07.07 0 0 1-.097.019l-.264-.178a.07.07 0 0 1-.019-.097zM23.228 26.444l-.918.768a.268.268 0 0 1-.378-.028.27.27 0 0 1 .028-.38l.918-.768a.268.268 0 0 1 .378.028.272.272 0 0 1-.028.38zM26.614 21.638l1.631.495a.07.07 0 0 1 .047.087l-.093.305a.07.07 0 0 1-.087.046l-1.631-.495a.07.07 0 0 1-.046-.087l.092-.305a.07.07 0 0 1 .087-.046zM57.49 44.497l-1.398-.808a.103.103 0 0 1-.038-.14l.238-.413a.103.103 0 0 1 .14-.037l1.4.807c.05.029.066.092.038.141l-.238.412a.103.103 0 0 1-.141.038zM57.476 45.18l.464 1.102a.27.27 0 0 1-.138.354.27.27 0 0 1-.354-.138l-.464-1.098a.27.27 0 0 1 .14-.354c.134-.06.291 0 .352.134zM41.236 61.67l.144 1.188a.268.268 0 1 1-.532.072l-.146-1.188a.272.272 0 0 1 .232-.302.27.27 0 0 1 .302.23zM37.907 62.338l1.304-1.098a.07.07 0 0 1 .098.008l.206.244a.07.07 0 0 1-.009.098l-1.304 1.098a.07.07 0 0 1-.098-.008l-.206-.244a.07.07 0 0 1 .009-.098zM42.117 60.187l.777-1.417a.103.103 0 0 1 .14-.04l.417.228c.05.027.068.09.041.14l-.777 1.417a.103.103 0 0 1-.14.04l-.417-.228a.103.103 0 0 1-.04-.14zM40.042 60.1l-1.092.488a.27.27 0 0 1-.358-.132.27.27 0 0 1 .132-.356l1.092-.488a.27.27 0 0 1 .356.132.268.268 0 0 1-.13.356zM43.11 60.732l1.432.92a.07.07 0 0 1 .021.096l-.172.268a.07.07 0 0 1-.096.02l-1.432-.92a.07.07 0 0 1-.02-.096l.171-.268a.07.07 0 0 1 .097-.02z"/>
                            <path fill="#F5C742" fill-rule="nonzero" d="M40.6 58.756l.144 1.188a.272.272 0 0 1-.232.302.27.27 0 0 1-.302-.23l-.144-1.188a.27.27 0 0 1 .534-.072zM41.236 61.67l.144 1.188a.268.268 0 1 1-.532.072l-.146-1.188a.272.272 0 0 1 .232-.302.27.27 0 0 1 .302.23zM37.907 62.338l1.304-1.098a.07.07 0 0 1 .098.008l.206.244a.07.07 0 0 1-.009.098l-1.304 1.098a.07.07 0 0 1-.098-.008l-.206-.244a.07.07 0 0 1 .009-.098zM42.117 60.187l.777-1.417a.103.103 0 0 1 .14-.04l.417.228c.05.027.068.09.041.14l-.777 1.417a.103.103 0 0 1-.14.04l-.417-.228a.103.103 0 0 1-.04-.14zM43.11 60.732l1.432.92a.07.07 0 0 1 .021.096l-.172.268a.07.07 0 0 1-.096.02l-1.432-.92a.07.07 0 0 1-.02-.096l.171-.268a.07.07 0 0 1 .097-.02zM34.974 59.952l.816.874a.27.27 0 0 1 0 .38.27.27 0 0 1-.38 0l-.816-.874a.268.268 0 0 1 0-.38.266.266 0 0 1 .38 0zM16.362 31.414l1.112 1.172a.103.103 0 0 1-.004.146l-.346.327a.103.103 0 0 1-.145-.004l-1.112-1.172a.103.103 0 0 1 .004-.146l.345-.327a.103.103 0 0 1 .146.004zM16.54 29.844l-1.112.442a.27.27 0 0 1-.35-.146.268.268 0 0 1 .146-.352l1.112-.44a.27.27 0 0 1 .35.146.27.27 0 0 1-.146.35zM20.612 29.886l-1.676.313a.07.07 0 0 1-.081-.055l-.059-.314a.07.07 0 0 1 .056-.081l1.676-.313a.07.07 0 0 1 .081.056l.059.313a.07.07 0 0 1-.056.081zM15.67 32.243l-.792 1.408a.103.103 0 0 1-.14.04l-.415-.234a.103.103 0 0 1-.039-.14l.793-1.409a.103.103 0 0 1 .14-.039l.415.233c.05.028.067.091.039.141zM18.088 33.366l1.098-.476a.272.272 0 0 1 .356.136.272.272 0 0 1-.136.356l-1.098.474a.268.268 0 1 1-.22-.49zM24.593 20.107l-1.573.655a.07.07 0 0 1-.091-.038l-.123-.294a.07.07 0 0 1 .038-.091l1.573-.655a.07.07 0 0 1 .091.037l.123.295a.07.07 0 0 1-.038.09zM17.072 34.044l.906.78a.27.27 0 0 1 .034.378.27.27 0 0 1-.378.034l-.908-.78a.272.272 0 0 1-.032-.38.268.268 0 0 1 .378-.032zM17.4 30.162l-.13-1.19a.27.27 0 0 1 .234-.3.27.27 0 0 1 .3.234l.13 1.19a.27.27 0 0 1-.234.3.27.27 0 0 1-.3-.234z"/>
                            <path fill="#F5C742" fill-rule="nonzero" d="M20.71 30.033l-1.317 1.083a.07.07 0 0 1-.098-.01l-.203-.246a.07.07 0 0 1 .01-.098l1.317-1.083a.07.07 0 0 1 .098.01l.202.246a.07.07 0 0 1-.01.098zM15.67 32.243l-.792 1.408a.103.103 0 0 1-.14.04l-.415-.234a.103.103 0 0 1-.039-.14l.793-1.409a.103.103 0 0 1 .14-.039l.415.233c.05.028.067.091.039.141zM18.43 27.92l1.098-.474c.135-.06.293 0 .354.134a.27.27 0 0 1-.134.356l-1.098.476a.272.272 0 0 1-.356-.136.27.27 0 0 1 .136-.356zM20.716 26.233l-1.423-.94a.07.07 0 0 1-.02-.096l.176-.266a.07.07 0 0 1 .097-.02l1.423.94a.07.07 0 0 1 .02.096l-.176.266a.07.07 0 0 1-.097.02zM17.93 37.278l-.13-1.19a.27.27 0 0 1 .234-.3.27.27 0 0 1 .3.234l.13 1.19a.27.27 0 0 1-.234.3.27.27 0 0 1-.3-.234zM59.671 42.77l.893-1.347a.103.103 0 0 1 .143-.03l.396.263c.048.032.06.096.03.143l-.893 1.347a.103.103 0 0 1-.143.03l-.397-.263a.103.103 0 0 1-.029-.143zM59.022 43.873l1.63.495a.07.07 0 0 1 .047.087l-.092.305a.07.07 0 0 1-.087.046l-1.631-.495a.07.07 0 0 1-.047-.087l.093-.305a.07.07 0 0 1 .087-.046zM57.517 35.89l.579-1.533a.106.106 0 0 1 .136-.062l.451.17c.055.021.083.082.062.137l-.578 1.533a.106.106 0 0 1-.137.062l-.451-.17a.106.106 0 0 1-.062-.137zM57.758 37.149l1.27-1.041a.106.106 0 0 1 .15.015l.305.373a.106.106 0 0 1-.014.149l-1.271 1.04a.106.106 0 0 1-.149-.014l-.306-.373a.106.106 0 0 1 .015-.149zM53.616 32.89l-1.732.064a.4.4 0 0 1-.4-.37.4.4 0 0 1 .37-.4l1.734-.064a.4.4 0 0 1 .4.37.4.4 0 0 1-.372.4zM55.786 29.538l1.429 2.018a.1.1 0 0 1-.024.14l-.376.267a.1.1 0 0 1-.14-.024l-1.429-2.018a.1.1 0 0 1 .024-.14l.376-.267a.1.1 0 0 1 .14.024zM56.908 33.173l1.636.1a.106.106 0 0 1 .1.112l-.03.482a.106.106 0 0 1-.112.099l-1.636-.1a.106.106 0 0 1-.1-.113l.03-.482a.106.106 0 0 1 .112-.098zM51.321 21.762l1.522 1.007a.118.118 0 0 1 .033.163l-.297.448a.118.118 0 0 1-.163.033l-1.521-1.008a.118.118 0 0 1-.033-.163l.296-.447a.118.118 0 0 1 .163-.033z"/>
                            <path fill="#F5C742" fill-rule="nonzero" d="M51.81 24.528l-.446-1.276a.304.304 0 0 1 .18-.4.306.306 0 0 1 .39.182l.446 1.276a.304.304 0 0 1-.18.4.304.304 0 0 1-.39-.182zM56.156 23.179l-1.174 1.527a.08.08 0 0 1-.11.014l-.284-.218a.08.08 0 0 1-.015-.111l1.174-1.527a.08.08 0 0 1 .11-.014l.284.218a.08.08 0 0 1 .015.11zM50.984 25.014l1.817.112c.065.004.115.06.11.124l-.032.536a.118.118 0 0 1-.125.11l-1.817-.111a.118.118 0 0 1-.11-.125l.033-.536a.118.118 0 0 1 .124-.11zM58.157 39.866l.646-1.51a.106.106 0 0 1 .138-.056l.444.19a.106.106 0 0 1 .056.138l-.646 1.51a.106.106 0 0 1-.138.057l-.444-.19a.106.106 0 0 1-.056-.139zM61.2 37.112l-.4-1.15a.274.274 0 0 1 .164-.35.276.276 0 0 1 .35.164l.4 1.148a.272.272 0 0 1-.164.35.274.274 0 0 1-.35-.162zM52.554 26.804l1.412-1.157a.118.118 0 0 1 .165.017l.34.415a.118.118 0 0 1-.016.165l-1.411 1.157a.118.118 0 0 1-.166-.017l-.34-.415a.118.118 0 0 1 .016-.165zM60.03 37.568l-1.216.044a.272.272 0 0 1-.286-.258.274.274 0 0 1 .258-.288l1.216-.044a.272.272 0 0 1 .286.258.274.274 0 0 1-.258.288zM47.837 21.517l1.952 1.293a.15.15 0 0 1 .042.208l-.38.575a.15.15 0 0 1-.209.042l-1.952-1.293a.15.15 0 0 1-.042-.208l.38-.575a.15.15 0 0 1 .209-.042zM60.719 39.51l-1.057 1.374a.07.07 0 0 1-.1.013l-.255-.196a.07.07 0 0 1-.013-.1l1.057-1.375a.07.07 0 0 1 .099-.012l.256.196a.07.07 0 0 1 .013.1zM25.632 57.665l1.541.484a.103.103 0 0 1 .068.13l-.143.453a.103.103 0 0 1-.13.068l-1.54-.484a.103.103 0 0 1-.068-.13l.142-.453a.103.103 0 0 1 .13-.068zM24.886 54.125l-.624 1.586a.07.07 0 0 1-.09.04l-.297-.117a.07.07 0 0 1-.039-.09l.624-1.587a.07.07 0 0 1 .09-.04l.297.118a.07.07 0 0 1 .04.09zM29.16 58.174l-.625 1.586a.07.07 0 0 1-.09.04l-.297-.117a.07.07 0 0 1-.04-.09l.625-1.587a.07.07 0 0 1 .09-.04l.297.118a.07.07 0 0 1 .04.09zM25.632 55.436l1.541.483a.103.103 0 0 1 .068.13l-.143.454a.103.103 0 0 1-.13.067l-1.54-.484a.103.103 0 0 1-.068-.13l.142-.453a.103.103 0 0 1 .13-.067zM21.205 52.38l-1.703-.079a.07.07 0 0 1-.066-.073l.015-.318a.07.07 0 0 1 .073-.066l1.702.08a.07.07 0 0 1 .067.072l-.015.319a.07.07 0 0 1-.073.066zM30.215 58.91l1.272.997c.044.035.052.1.017.145l-.293.374a.103.103 0 0 1-.145.018l-1.272-.997a.103.103 0 0 1-.017-.145l.293-.375a.103.103 0 0 1 .145-.017z"/>
                            <path fill="#F5C742" fill-rule="nonzero" d="M29.16 58.174l-.625 1.586a.07.07 0 0 1-.09.04l-.297-.117a.07.07 0 0 1-.04-.09l.625-1.587a.07.07 0 0 1 .09-.04l.297.118a.07.07 0 0 1 .04.09zM33.375 60.217l-1.287-1.164a.07.07 0 0 1-.005-.1l.217-.239a.07.07 0 0 1 .1-.005l1.286 1.164a.07.07 0 0 1 .005.1l-.216.24a.07.07 0 0 1-.1.004zM15.564 36.086l-.076 1.614a.103.103 0 0 1-.107.098l-.475-.022a.103.103 0 0 1-.099-.108l.076-1.614a.103.103 0 0 1 .108-.098l.475.022c.057.003.1.05.098.108zM18.014 39.738l-.08 1.616a.103.103 0 0 1-.109.098l-.476-.024a.103.103 0 0 1-.098-.108l.081-1.616a.103.103 0 0 1 .108-.098l.476.024c.057.003.1.051.098.108zM16.954 39.69l-1.693-.2a.07.07 0 0 1-.061-.076l.037-.317a.07.07 0 0 1 .078-.061l1.693.2a.07.07 0 0 1 .06.076l-.037.317a.07.07 0 0 1-.077.061z"/>
                            <path fill="#F5C742" fill-rule="nonzero" d="M15.564 36.086l-.076 1.614a.103.103 0 0 1-.107.098l-.475-.022a.103.103 0 0 1-.099-.108l.076-1.614a.103.103 0 0 1 .108-.098l.475.022c.057.003.1.05.098.108zM16.515 40.888l-.64 1.484a.103.103 0 0 1-.136.053l-.437-.188a.103.103 0 0 1-.054-.136l.64-1.483a.103.103 0 0 1 .136-.054l.437.189a.103.103 0 0 1 .054.135zM16.954 39.69l-1.693-.2a.07.07 0 0 1-.061-.076l.037-.317a.07.07 0 0 1 .078-.061l1.693.2a.07.07 0 0 1 .06.076l-.037.317a.07.07 0 0 1-.077.061zM19.698 48.7l-.298 1.612a.106.106 0 0 1-.123.085l-.475-.088a.106.106 0 0 1-.085-.123l.3-1.612a.106.106 0 0 1 .122-.084l.475.088c.057.01.095.065.084.123z"/>
                            <path fill="#F5C742" fill-rule="nonzero" d="M20.923 49.847l-1.627.19a.106.106 0 0 1-.118-.093l-.056-.48a.106.106 0 0 1 .093-.116l1.628-.19a.106.106 0 0 1 .117.093l.056.48a.106.106 0 0 1-.093.116zM23.915 53.274l-1.628.19a.106.106 0 0 1-.117-.092l-.056-.48a.106.106 0 0 1 .093-.117l1.627-.19a.106.106 0 0 1 .118.093l.056.48a.106.106 0 0 1-.093.116zM16 46.726l.6 1.06a.274.274 0 0 1-.474.274l-.6-1.06a.272.272 0 0 1 .1-.372.272.272 0 0 1 .374.098zM17.076 46.07l1.2-.26a.274.274 0 0 1 .328.2.274.274 0 0 1-.2.328L17.2 46.6a.274.274 0 0 1-.328-.2.274.274 0 0 1 .204-.33zM17.127 44.279l.798-1.54a.07.07 0 0 1 .095-.03l.287.148a.07.07 0 0 1 .03.095l-.798 1.54a.07.07 0 0 1-.095.03l-.286-.148a.07.07 0 0 1-.03-.095zM41.312 19.325l-1.006 1.288a.106.106 0 0 1-.148.019l-.379-.296a.106.106 0 0 1-.018-.148l1.006-1.289a.106.106 0 0 1 .148-.018l.38.296a.106.106 0 0 1 .017.148zM42.114 19.01l1.172-.31a.272.272 0 0 1 .334.2.272.272 0 0 1-.188.334l-1.174.31a.272.272 0 0 1-.334-.188.272.272 0 0 1 .19-.346zM41.092 17.484l-1.528-.582a.106.106 0 0 1-.06-.136l.17-.45a.106.106 0 0 1 .137-.06l1.527.58c.055.022.082.083.062.137l-.172.45a.106.106 0 0 1-.136.06z"/>
                            <path fill="#F5C742" fill-rule="nonzero" d="M41.017 17.272l.726-1.566a.07.07 0 0 1 .094-.035l.292.136a.07.07 0 0 1 .035.094l-.726 1.566a.07.07 0 0 1-.094.035l-.293-.136a.07.07 0 0 1-.034-.094zM36.923 20.368l-1.528-.581a.106.106 0 0 1-.061-.136l.17-.45a.106.106 0 0 1 .137-.06l1.528.58c.054.021.082.082.06.137l-.17.45a.106.106 0 0 1-.136.06zM36.59 18.53l.727-1.566a.07.07 0 0 1 .094-.034l.292.136a.07.07 0 0 1 .035.094l-.726 1.566a.07.07 0 0 1-.094.034l-.293-.135a.07.07 0 0 1-.034-.094zM41.908 20.242l1.172-.31a.272.272 0 0 1 .336.188.274.274 0 0 1-.2.336l-1.172.31a.272.272 0 0 1-.334-.2.272.272 0 0 1 .198-.324zM41.091 19.555l-1.527-.581a.106.106 0 0 1-.062-.137l.171-.449a.106.106 0 0 1 .137-.061l1.528.582c.054.02.081.081.06.136l-.17.45a.106.106 0 0 1-.137.06z"/>
                            <path fill="#F5C742" fill-rule="nonzero" d="M41.017 17.272l.726-1.566a.07.07 0 0 1 .094-.035l.292.136a.07.07 0 0 1 .035.094l-.726 1.566a.07.07 0 0 1-.094.035l-.293-.136a.07.07 0 0 1-.034-.094zM35.573 18.763L34.35 17.68a.106.106 0 0 1-.01-.15l.32-.36a.106.106 0 0 1 .149-.009l1.224 1.084a.106.106 0 0 1 .009.149l-.319.36a.106.106 0 0 1-.149.009zM36.59 18.53l.727-1.566a.07.07 0 0 1 .094-.034l.292.136a.07.07 0 0 1 .035.094l-.726 1.566a.07.07 0 0 1-.094.034l-.293-.135a.07.07 0 0 1-.034-.094zM30.936 17.572l-.124 1.2a.272.272 0 0 1-.296.246.274.274 0 0 1-.246-.296l.124-1.2a.274.274 0 0 1 .296-.246c.15.015.259.147.246.296zM34.721 19.247l-.422 1.674a.07.07 0 0 1-.086.052l-.313-.08a.07.07 0 0 1-.05-.085l.421-1.674a.07.07 0 0 1 .086-.052l.313.08a.07.07 0 0 1 .051.085zM46.698 21.616l-1.625.186a.106.106 0 0 1-.117-.093l-.054-.478a.106.106 0 0 1 .093-.117l1.624-.185a.106.106 0 0 1 .117.093l.055.478a.106.106 0 0 1-.093.116zM29.642 21.77l-.074-1.725a.07.07 0 0 1 .067-.074l.322-.014a.07.07 0 0 1 .074.068l.075 1.724a.07.07 0 0 1-.068.074l-.322.014a.07.07 0 0 1-.074-.067zM48.23 18.512l-1.439-.954a.07.07 0 0 1-.02-.098l.179-.269a.07.07 0 0 1 .098-.02l1.439.954a.07.07 0 0 1 .02.098l-.178.269a.07.07 0 0 1-.098.02zM60.994 31.708l-1.625.185a.106.106 0 0 1-.117-.092l-.054-.478a.106.106 0 0 1 .093-.117l1.624-.185a.106.106 0 0 1 .117.093l.055.477a.106.106 0 0 1-.093.117z"/>
                            <path fill="#F5C742" fill-rule="nonzero" d="M44.823 21.77l-.074-1.725a.07.07 0 0 1 .067-.074l.322-.014a.07.07 0 0 1 .074.068l.075 1.725a.07.07 0 0 1-.068.074l-.322.013a.07.07 0 0 1-.074-.067zM56.649 30.033l-1.586-.4a.106.106 0 0 1-.076-.128l.117-.466a.106.106 0 0 1 .129-.077l1.585.4c.056.014.09.072.076.128l-.117.466a.106.106 0 0 1-.128.077zM59.495 29.532l-.075-1.725a.07.07 0 0 1 .068-.074l.322-.014a.07.07 0 0 1 .074.068l.075 1.725a.07.07 0 0 1-.068.073l-.322.014a.07.07 0 0 1-.074-.067zM54.716 27.298l.444 1.128a.272.272 0 1 1-.504.206l-.444-1.128a.27.27 0 0 1 .148-.354c.14-.057.298.01.356.148zM55.824 26.7l1.64.539a.07.07 0 0 1 .045.09l-.1.306a.07.07 0 0 1-.09.045l-1.64-.54a.07.07 0 0 1-.045-.089l.1-.306a.07.07 0 0 1 .09-.045z"/>
                            <path fill="#34BE72" fill-rule="nonzero" d="M35.8 47.574c2.644-1.62 2.118-5.668 2.118-5.668l-.034-.01-7.986 7.33c.246-.006 3.366-.094 5.902-1.652z"/>
                            <path fill="#01AF4F" fill-rule="nonzero" d="M29.886 49.226h.018l7.986-7.33c-7.152-1.254-8.004 7.33-8.004 7.33z"/>
                            <path fill="#EC6352" fill-rule="nonzero" d="M51.453 46.634l.36-1.576a.103.103 0 0 1 .123-.077l.464.105c.055.013.09.068.077.124l-.359 1.575a.103.103 0 0 1-.123.078l-.464-.106a.103.103 0 0 1-.078-.123zM51.89 40.966l.704.818c.06.08.047.191-.028.256l-.154.142a.174.174 0 0 1-.25 0l-.704-.816a.188.188 0 0 1 .028-.258l.154-.142a.174.174 0 0 1 .25 0zM44 46.692l.214 1.044a.17.17 0 0 1-.096.2l-.146.042a.142.142 0 0 1-.164-.128L43.6 46.8a.168.168 0 0 1 .096-.2l.146-.042a.142.142 0 0 1 .158.134zM45.012 39.752l1.05-.18a.168.168 0 0 1 .2.102l.038.148c.018.072-.042.144-.134.16l-1.048.18a.17.17 0 0 1-.2-.102l-.038-.148c-.02-.072.04-.144.132-.16zM45.574 33.106l.832-.176c.072-.016.15.07.174.19l.046.242c.024.12-.016.232-.09.246l-.832.176c-.072.016-.152-.07-.174-.19l-.046-.242c-.024-.12.016-.232.09-.246zM34.448 36.2l.762.374a.144.144 0 0 1 .066.184l-.06.138a.13.13 0 0 1-.176.066l-.762-.376a.142.142 0 0 1-.066-.184l.06-.138a.128.128 0 0 1 .176-.064zM34.77 51.072l.762.376a.14.14 0 0 1 .066.184l-.06.138a.13.13 0 0 1-.176.066l-.762-.376a.144.144 0 0 1-.066-.184l.062-.138a.128.128 0 0 1 .174-.066zM41.218 54.538l1.2.6c.1.04.155.151.124.256l-.072.176a.18.18 0 0 1-.256.066l-1.2-.6a.214.214 0 0 1-.124-.254l.074-.178a.178.178 0 0 1 .254-.066zM25.584 41.692l1.07-.812a.216.216 0 0 1 .284 0l.126.144a.18.18 0 0 1-.054.258l-1.068.812a.214.214 0 0 1-.284 0l-.128-.144a.182.182 0 0 1 .054-.258zM29.89 55.98l1.07-.812a.216.216 0 0 1 .284 0l.126.144a.18.18 0 0 1-.054.258l-1.068.812a.214.214 0 0 1-.284 0l-.128-.144a.182.182 0 0 1 .054-.258zM29.37 53.45l-.932-.966a.216.216 0 0 1-.038-.284l.128-.144a.18.18 0 0 1 .262.024l.932.966c.08.072.094.193.032.282l-.128.144a.18.18 0 0 1-.256-.022zM27.366 30.92l-1.33.166a.212.212 0 0 1-.246-.142l-.038-.188a.178.178 0 0 1 .176-.2l1.332-.168c.105-.02.21.04.244.142l.038.2c.02.086-.06.174-.176.19zM21.87 45.646l1.324-.2a.216.216 0 0 1 .25.134l.044.188a.18.18 0 0 1-.17.2l-1.324.2a.214.214 0 0 1-.25-.136l-.044-.186a.18.18 0 0 1 .17-.2zM30.2 29.746l1.162.284a.2.2 0 0 1 .158.2l-.03.172a.164.164 0 0 1-.212.112l-1.16-.286a.2.2 0 0 1-.158-.2l.03-.172a.16.16 0 0 1 .21-.11z" opacity=".4"/>
                            <circle cx="56.664" cy="43.72" r="1.298" fill="#34BE72" fill-rule="nonzero"/>
                            <path fill="#01AF4F" fill-rule="nonzero" d="M56.4 42.6a1.294 1.294 0 0 1 .856 2.268A1.294 1.294 0 1 0 55.8 42.75c.185-.098.39-.15.6-.15z"/>
                            <circle cx="55.906" cy="44.076" r="1" fill="#97DDB6" fill-rule="nonzero" opacity=".5"/>
                            <circle cx="29.084" cy="34.526" r="1" fill="#34BE72" fill-rule="nonzero"/>
                            <path fill="#01AF4F" fill-rule="nonzero" d="M28.89 33.742a.912.912 0 0 1 .6 1.6.914.914 0 0 0-.41-1.732.906.906 0 0 0-.6.232.912.912 0 0 1 .41-.1z"/>
                            <circle cx="28.548" cy="34.778" r="1" fill="#97DDB6" fill-rule="nonzero" opacity=".5"/>
                            <circle cx="34.284" cy="57.508" r="1.282" fill="#34BE72" fill-rule="nonzero"/>
                            <path fill="#01AF4F" fill-rule="nonzero" d="M34.014 56.41a1.278 1.278 0 0 1 .844 2.238 1.278 1.278 0 1 0-1.418-2.096c.177-.092.374-.141.574-.142z"/>
                            <circle cx="33.536" cy="57.858" r="1" fill="#97DDB6" fill-rule="nonzero" opacity=".5"/>
                            <circle cx="21.52" cy="28.434" r="1.282" fill="#34BE72" fill-rule="nonzero"/>
                            <path fill="#01AF4F" fill-rule="nonzero" d="M21.25 27.336a1.276 1.276 0 0 1 .844 2.238 1.276 1.276 0 1 0-1.418-2.096c.177-.092.374-.14.574-.142z"/>
                            <circle cx="20.772" cy="28.784" r="1" fill="#97DDB6" fill-rule="nonzero" opacity=".5"/>
                            <path fill="#008B3F" fill-rule="nonzero" d="M50.532 35.212l-.963-.872 1.623-1.792.964.873z"/>
                            <path fill="#006A30" fill-rule="nonzero" d="M50.532 35.213l-.29-.263 1.623-1.792.29.263z"/>
                            <path fill="#008B3F" fill-rule="nonzero" d="M33.122 34.374l.796-.646 1.246 1.586-.794.646z"/>
                            <path fill="#006A30" fill-rule="nonzero" d="M33.678 33.922l.24-.194 1.246 1.586-.24.196z"/>
                            <path fill="#34BE72" fill-rule="nonzero" d="M45.64 52.105l-.865 1.505-2.6-1.496.865-1.505z"/>
                            <path fill="#01AF4F" fill-rule="nonzero" d="M45.641 52.104l-.26.454-2.601-1.495.261-.455z"/>
                            <path fill="#34BE72" fill-rule="nonzero" d="M26.456 48.482l-.651 1.132-1.082-.623.651-1.132z"/>
                            <path fill="#01AF4F" fill-rule="nonzero" d="M26.458 48.484l-.196.341-1.082-.622.196-.341z"/>
                            <path fill="#34BE72" fill-rule="nonzero" d="M24.504 37.563l-.028.871-1.795-.057.028-.871z"/>
                            <path fill="#01AF4F" fill-rule="nonzero" d="M24.524 37.635l-.008.262-1.796-.054.008-.262z"/>
                            <path fill="#34BE72" fill-rule="nonzero" d="M52.84 53.256l-.716.498-1.025-1.475.716-.497z"/>
                            <path fill="#01AF4F" fill-rule="nonzero" d="M52.84 53.257l-.214.15-1.025-1.475.215-.15z"/>
                            <path fill="#EC6352" fill-rule="nonzero" d="M45.598 49.59h-1v-2.018h1zM42.492 39.538l-.901 1.288-1.798-1.257.9-1.288zM23.99 42.598l1.538-.287.287 1.538-1.538.286zM24.713 52.781l.604-.112.112.603-.603.113zM40.118 56.538l.604-.113.113.604-.604.112zM20.855 33.638l.604-.112.112.603-.603.113zM15.819 36.638l1.29-.24.24 1.289-1.29.24zM32.262 58.03l-.488.696-.492-.302.488-.694zM50.104 40.644l.07.92-1.312.222-.068-.922zM15.438 44.448l.584.558-.83 1.024-.584-.558zM55.69 47.862l.772.74-1.1 1.36-.774-.742zM35.708 32.564l-.43.782-.826-.328.43-.782zM25.664 26.162l-.442.796-1.274-.57.442-.794z"/>
                            <circle cx="60.303" cy="30.234" r="4.848" fill="#34BE72" fill-rule="nonzero" transform="rotate(-32.37 60.303 30.234)"/>
                            <circle cx="60.313" cy="30.233" r="4.144" fill="#97DDB6" fill-rule="nonzero" transform="rotate(-32.37 60.313 30.233)"/>
                            <ellipse cx="62.141" cy="29.602" fill="#FFF" fill-rule="nonzero" rx="1.072" ry="1" transform="rotate(-9.22 62.14 29.602)"/>
                            <ellipse cx="62.232" cy="30.139" fill="#FFF" fill-rule="nonzero" rx="1.072" ry="1" transform="rotate(-9.22 62.232 30.139)"/>
                            <ellipse cx="59.048" cy="28.802" fill="#FFF" fill-rule="nonzero" rx="1" ry="1.072" transform="rotate(-54.22 59.048 28.802)"/>
                            <ellipse cx="58.73" cy="29.245" fill="#FFF" fill-rule="nonzero" rx="1" ry="1.072" transform="rotate(-54.22 58.73 29.245)"/>
                            <ellipse cx="59.572" cy="31.983" fill="#FFF" fill-rule="nonzero" rx="1.072" ry="1" transform="rotate(-54.53 59.572 31.983)"/>
                            <ellipse cx="59.131" cy="31.667" fill="#FFF" fill-rule="nonzero" rx="1.072" ry="1" transform="rotate(-54.53 59.131 31.667)"/>
                            <circle cx="57.363" cy="35.093" r="4.848" fill="#34BE72" fill-rule="nonzero" transform="rotate(-32.37 57.363 35.093)"/>
                            <circle cx="57.374" cy="35.089" r="4.144" fill="#97DDB6" fill-rule="nonzero" transform="rotate(-32.37 57.374 35.09)"/>
                            <ellipse cx="59.203" cy="34.46" fill="#FFF" fill-rule="nonzero" rx="1.072" ry="1" transform="rotate(-9.22 59.203 34.46)"/>
                            <ellipse cx="59.292" cy="34.997" fill="#FFF" fill-rule="nonzero" rx="1.072" ry="1" transform="rotate(-9.22 59.292 34.997)"/>
                            <ellipse cx="55.816" cy="33.58" fill="#FFF" fill-rule="nonzero" rx="1" ry="1.068" transform="rotate(-54.395 55.816 33.58)"/>
                            <ellipse cx="55.793" cy="34.104" fill="#FFF" fill-rule="nonzero" rx="1" ry="1.072" transform="rotate(-54.22 55.793 34.104)"/>
                            <ellipse cx="56.634" cy="36.843" fill="#FFF" fill-rule="nonzero" rx="1.072" ry="1" transform="rotate(-54.53 56.634 36.843)"/>
                            <ellipse cx="56.191" cy="36.525" fill="#FFF" fill-rule="nonzero" rx="1.072" ry="1" transform="rotate(-54.53 56.19 36.525)"/>
                            <path fill="#BC4F42" fill-rule="nonzero" d="M59.826 28.276c-2.2 2.984-6.574 3.29-9.818.902-3.244-2.388-3.85-6.25-1.654-9.234s6.884-3.824 10.126-1.436c3.242 2.388 3.542 6.784 1.346 9.768z"/>
                            <path d="M51.944 25a.236.236 0 0 1-.296-.246v-.046a.22.22 0 0 0-.072-.186l-.224-.214a.216.216 0 0 1-.046-.264l.096-.168a.216.216 0 0 0-.058-.274l-.082-.068a.214.214 0 0 1-.018-.324.2.2 0 0 0 .036-.26l-.054-.094a.2.2 0 0 1 .164-.308l1.062-.038-.778-1.91a.868.868 0 0 0-1.288-.412 4.06 4.06 0 0 0-.81.812c-1.2 1.618-1 3.854.298 5.458a.832.832 0 0 0 1.304.026l1.18-1.6-.414.116z"/>
                            <path fill="#EC6352" fill-rule="nonzero" d="M58.652 19.122c-3.044-2.24-8-1.8-10.062 1-2.062 2.8-1.39 6.478 1.662 8.724 3.052 2.246 6.982 2.2 9.042-.6 2.06-2.8 2.402-6.884-.642-9.124zm-5.2-.178a5.066 5.066 0 0 1 5.304 3.904.726.726 0 0 1-.8.888l-2.444-.548.2-.264a.492.492 0 0 0 .028-.546c-.12-.138-.466-.08-.436-.326A.388.388 0 0 0 55 21.62c-.142 0-.35.1-.442.076a.334.334 0 0 1-.162-.124.218.218 0 0 0-.37.016l-.282.588-.896-2.2a.728.728 0 0 1 .604-1.032zm-3.578 7.52c-1.308-1.6-1.49-3.84-.298-5.458.23-.312.502-.59.81-.824a.868.868 0 0 1 1.288.418l.782 1.924h-.81a.2.2 0 0 0-.162.308l.054.094c.052.088-.07.24-.142.304a.2.2 0 0 0 .018.322l.082.07c.084.07-.038.188-.09.276l-.096.168a.216.216 0 0 0 .046.264l.224.214a.22.22 0 0 1 .072.186v.046a.236.236 0 0 0 .296.246l.414-.12-1.18 1.6a.832.832 0 0 1-1.308-.038zm2.948 2.104c-.6-.218-.866-.938-.512-1.42l1.128-1.534.034.284a.236.236 0 0 0 .322.21.538.538 0 0 1 .242 0l.228.078c.09.05.288.114.358-.176s.182-.298.478-.298.238-.084.288-.2a.2.2 0 0 1 .238-.11l.106.024a.2.2 0 0 0 .246-.248l-.378-.73 1.948.574c.65.056 1.102.728.864 1.298a4 4 0 0 1-.476.842c-1.15 1.568-3.238 2.078-5.114 1.406z"/>
                            <path fill="#EC6352" fill-rule="nonzero" d="M55 20.582c-.014.298-.118.4-.24.388-.122-.012-.216-.144-.2-.442a.83.83 0 0 1 .24-.512.976.976 0 0 1 .2.566zM55.962 21.324c-.184.226-.336.25-.432.172-.096-.078-.106-.232.08-.456a.868.868 0 0 1 .51-.266.848.848 0 0 1-.158.55zM56.582 21.78c-.28.102-.35.232-.3.344.05.112.2.162.482.06a.834.834 0 0 0 .416-.384.976.976 0 0 0-.598-.02zM55.72 26.45c-.144-.268-.11-.4 0-.46s.258.018.4.284a.85.85 0 0 1 .06.57 1.016 1.016 0 0 1-.46-.394zM55.024 27.246c-.054-.282-.174-.378-.298-.358-.124.02-.2.146-.15.428.05.19.163.358.32.476a.814.814 0 0 0 .128-.546zM50.388 22.428c.288.128.436.09.478-.018.042-.108-.034-.244-.322-.372a.968.968 0 0 0-.6-.036c.102.183.257.331.444.426zM50.352 23.628c.3-.048.4-.162.364-.28-.036-.118-.17-.2-.468-.146a.854.854 0 0 0-.49.298c.18.103.388.147.594.128zM50.368 24.524c.228-.184.384-.18.466-.086.082.094.06.244-.168.428a.902.902 0 0 1-.56.162.842.842 0 0 1 .262-.504z"/>
                            <path fill="#FFF" fill-rule="nonzero" d="M42.294 14.2c-6.7-.218-14.48 1.854-16.532 8.288-2.15 6.73 3.47 11.97 8.722 11.448 5.252-.522 10.82 3.716 16.676-3.48C57.016 23.26 49 14.42 42.294 14.2z"/>
                            <circle cx="39.167" cy="24.915" r="4.934" fill="#F5C742" fill-rule="nonzero" transform="rotate(-40.29 39.167 24.915)"/>
                            <circle cx="39.947" cy="23.97" r="3.686" fill="#FFF" fill-rule="nonzero" opacity=".1" transform="rotate(-50.19 39.947 23.97)"/>
                            <path fill="#EC6352" fill-rule="nonzero" d="M40.486 29.314a4.932 4.932 0 0 1-5.33-7.272 4.932 4.932 0 1 0 8.29 5.322 4.914 4.914 0 0 1-2.96 1.95z" opacity=".2"/>
                            <path fill="#FFF" fill-rule="nonzero" d="M42.58 23.184c-.568.144-.664-.448-1.482-.818-.818-.37-2.052-.236-1.878-1.042.174-.806 1.118-.758 2.4.05.752.48 1.396 1.7.96 1.81z" opacity=".4"/>
                        </g>
                    </g>
                    <g transform="translate(34.667 5.333)">
                        <path fill="#6B7896" d="M0 0h64l-6.08 8.107a6.4 6.4 0 0 1-5.12 2.56H11.2a6.4 6.4 0 0 1-5.12-2.56L0 0z"/>
                        <circle cx="50.667" cy="5.333" r="2.667" fill="#ABB6CB"/>
                    </g>
                    <path stroke="#6B7896" stroke-width="3.2" d="M1.6 218.4h130.133V6.4a4.8 4.8 0 0 0-4.8-4.8H6.4a4.8 4.8 0 0 0-4.8 4.8v212z"/>
                    <rect width="101.333" height="10.667" x="16" y="132" fill="#EAEFF2" rx=".8"/>
                    <rect width="50.667" height="10.667" x="16" y="148" fill="#EAEFF2" rx=".8"/>
                </g>
            </g>
        </g>
        <g fill="#66D095" transform="translate(0 105)">
            <rect width="40" height="40" rx="16"/>
            <path d="M39.286 40c-4.445-2.222-7.223-6.111-8.334-11.667-5.555 1.111-7.222 3.334-5 6.667 2.223 3.333 6.667 5 13.334 5z"/>
        </g>
        <g fill="#99DFB8" transform="translate(1.667 105)">
            <rect width="40" height="40" rx="16"/>
            <path d="M39.286 40c-4.445-2.222-7.223-6.111-8.334-11.667-5.555 1.111-7.222 3.334-5 6.667 2.223 3.333 6.667 5 13.334 5z"/>
        </g>
        <path fill="#66D095" d="M20.707 136.768l8.721-8.72A6.667 6.667 0 1 0 20 118.618a6.667 6.667 0 0 0-9.428 9.428l8.72 8.721a1 1 0 0 0 1.415 0z"/>
        <path fill="#FFF" d="M22.374 136.768l8.72-8.72a6.667 6.667 0 1 0-9.427-9.429 6.667 6.667 0 1 0-9.428 9.428l8.72 8.721a1 1 0 0 0 1.415 0z"/>
        <g transform="translate(193.333 45)">
            <rect width="40" height="40" x="1.667" fill="#66D095" rx="16"/>
            <path fill="#66D095" d="M1.667 40C6.11 37.778 8.889 33.889 10 28.333c5.556 1.111 7.222 3.334 5 6.667-2.222 3.333-6.667 5-13.333 5z"/>
            <rect width="40" height="40" fill="#99DFB8" rx="16"/>
            <path fill="#99DFB8" d="M0 40c4.444-2.222 7.222-6.111 8.333-11.667 5.556 1.111 7.223 3.334 5 6.667C11.111 38.333 6.667 40 0 40z"/>
        </g>
        <path fill="#66D095" d="M214.558 72.301l-5.612 2.766a1 1 0 0 1-1.425-1.077l1.039-5.68a1 1 0 0 0-.31-.919l-4.354-3.98a1 1 0 0 1 .54-1.729l6.135-.836a1 1 0 0 0 .75-.525l2.794-5.307a1 1 0 0 1 1.77 0l2.794 5.307a1 1 0 0 0 .75.525l6.136.836a1 1 0 0 1 .54 1.73l-4.356 3.98a1 1 0 0 0-.309.917l1.04 5.681a1 1 0 0 1-1.426 1.077l-5.612-2.766a1 1 0 0 0-.884 0z"/>
        <path fill="#FFF" d="M212.891 72.301l-5.611 2.766a1 1 0 0 1-1.426-1.077l1.04-5.68a1 1 0 0 0-.31-.919l-4.355-3.98a1 1 0 0 1 .54-1.729l6.136-.836a1 1 0 0 0 .75-.525l2.793-5.307a1 1 0 0 1 1.77 0l2.794 5.307a1 1 0 0 0 .75.525l6.136.836a1 1 0 0 1 .54 1.73l-4.356 3.98a1 1 0 0 0-.309.917l1.04 5.681a1 1 0 0 1-1.426 1.077l-5.612-2.766a1 1 0 0 0-.884 0z"/>
        <rect width="53.333" height="26.667" x="40" fill="#66D095" rx="8"/>
        <path fill="#66D095" d="M96.667 26.667c-4.445-2.223-7.223-6.111-8.334-11.667-5.555 1.111-7.222 3.333-5 6.667 2.223 3.333 6.667 5 13.334 5z"/>
        <g transform="translate(41.667)">
            <rect width="53.333" height="26.667" fill="#99DFB8" rx="8"/>
            <circle cx="25" cy="13.333" r="3.333" fill="#66D095"/>
            <circle cx="38.333" cy="13.333" r="3.333" fill="#66D095"/>
            <circle cx="11.667" cy="13.333" r="3.333" fill="#66D095"/>
            <circle cx="26.667" cy="13.333" r="3.333" fill="#FFF"/>
            <circle cx="40" cy="13.333" r="3.333" fill="#FFF"/>
            <circle cx="13.333" cy="13.333" r="3.333" fill="#FFF"/>
            <path fill="#99DFB8" d="M56.667 26.667c-4.445-2.223-7.223-6.111-8.334-11.667-5.555 1.111-7.222 3.333-5 6.667 2.223 3.333 6.667 5 13.334 5z"/>
        </g>
    </g>
</svg>
